<svg width="24" height="24" viewBox="0 0 24 24" fill="none" xmlns="http://www.w3.org/2000/svg">
<path d="M20.243 4.75701C22.505 7.02501 22.583 10.637 20.479 12.993L11.999 21.485L3.52101 12.993C1.41701 10.637 1.49601 7.01901 3.75701 4.75701C6.02201 2.49301 9.64501 2.41701 12.001 4.52901C14.35 2.42001 17.98 2.49001 20.243 4.75701ZM5.17201 6.17201C3.68201 7.66201 3.60701 10.047 4.98001 11.623L12 18.654L19.02 11.624C20.394 10.047 20.319 7.66501 18.827 6.17001C17.34 4.68001 14.946 4.60801 13.374 5.98401L9.17201 10.187L7.75701 8.77301L10.582 5.94601L10.5 5.87701C8.92501 4.61201 6.62301 4.72001 5.17201 6.17201Z" fill="white"/>
</svg>
